<mxfile host="app.diagrams.net" modified="2024-03-25T03:44:21.201Z" agent="Mozilla/5.0 (Windows NT 10.0; Win64; x64) AppleWebKit/537.36 (KHTML, like Gecko) Chrome/123.0.0.0 Safari/537.36" version="24.0.5" etag="cU8ptFE_X3TadmFeJznY" type="github">
  <diagram name="PÃ¡gina-1" id="_b0uybbUiQIfAaLon3vl">
    <mxGraphModel>
      <root>
        <mxCell id="0" />
        <mxCell id="1" parent="0" />
      </root>
    </mxGraphModel>
  </diagram>
</mxfile>
